<svg t="1566894437113" class="icon" viewBox="0 0 1024 1024" version="1.1" xmlns="http://www.w3.org/2000/svg" p-id="1119" width="400" height="400"><path d="M426.725517 834.206897H243.959172a54.23669 54.23669 0 0 1-54.166069-54.20138v-182.801655c0-29.872552 24.293517-54.166069 54.166069-54.166069h182.766345c29.907862 0 54.23669 24.293517 54.23669 54.166069v182.801655c0 29.872552-24.328828 54.201379-54.23669 54.20138z m-182.766345-255.046621a18.114207 18.114207 0 0 0-18.114206 18.043586v182.801655c0 9.992828 8.121379 18.114207 18.114206 18.114207h182.766345a18.114207 18.114207 0 0 0 18.114207-18.114207v-182.801655a18.078897 18.078897 0 0 0-18.114207-18.043586H243.959172z m536.046345-98.198069h-182.801655a54.23669 54.23669 0 0 1-54.166069-54.166069V243.994483c0-29.907862 24.328828-54.201379 54.166069-54.20138h182.801655c29.943172 0 54.201379 24.293517 54.20138 54.20138v182.801655c0 29.872552-24.258207 54.166069-54.20138 54.166069z m-182.801655-255.081931a18.114207 18.114207 0 0 0-18.078896 18.114207v182.801655c0 9.957517 8.086069 18.043586 18.078896 18.043586h182.801655a18.149517 18.149517 0 0 0 18.149517-18.043586V243.994483a18.149517 18.149517 0 0 0-18.149517-18.114207h-182.801655z m-170.478345 255.081931H243.959172a54.201379 54.201379 0 0 1-54.166069-54.166069V243.994483c0-29.907862 24.293517-54.201379 54.166069-54.20138h182.766345c29.907862 0 54.23669 24.293517 54.23669 54.20138v182.801655c0 29.872552-24.328828 54.166069-54.23669 54.166069zM243.959172 225.880276a18.114207 18.114207 0 0 0-18.114206 18.114207v182.801655c0 9.957517 8.121379 18.043586 18.114206 18.043586h182.766345a18.114207 18.114207 0 0 0 18.114207-18.043586V243.994483a18.114207 18.114207 0 0 0-18.114207-18.114207H243.959172zM742.4 834.206897h-143.854345a55.578483 55.578483 0 0 1-55.507862-55.543173v-180.047448c0-30.649379 24.929103-55.578483 55.507862-55.578483h180.118069c30.649379 0 55.543172 24.964414 55.543173 55.613793v128.317793a18.008276 18.008276 0 1 1-36.087173 0v-128.317793a19.561931 19.561931 0 0 0-19.49131-19.49131H598.510345a19.456 19.456 0 0 0-19.42069 19.456v180.047448a19.42069 19.42069 0 0 0 19.42069 19.456h143.854345a18.078897 18.078897 0 0 1 0.03531 36.087173z" fill="#1890FF" p-id="1120"></path></svg>
